<svg viewBox="0 0 1024 1024" xmlns="http://www.w3.org/2000/svg">
  <defs>
    <!-- Background: deep space navy to near-black -->
    <radialGradient id="bg" cx="50%" cy="42%" r="72%">
      <stop offset="0%" stop-color="#081428"/>
      <stop offset="50%" stop-color="#040a14"/>
      <stop offset="100%" stop-color="#010306"/>
    </radialGradient>

    <!-- Radar disc fill -->
    <radialGradient id="radarFill" cx="50%" cy="50%" r="50%">
      <stop offset="0%" stop-color="#002b1a"/>
      <stop offset="60%" stop-color="#001208"/>
      <stop offset="100%" stop-color="#000704"/>
    </radialGradient>

    <!-- Radar soft glow -->
    <radialGradient id="radarGlow" cx="50%" cy="50%" r="50%">
      <stop offset="0%" stop-color="#00ff66" stop-opacity="0.14"/>
      <stop offset="55%" stop-color="#00cc44" stop-opacity="0.05"/>
      <stop offset="100%" stop-color="#00ff44" stop-opacity="0"/>
    </radialGradient>

    <!-- Center ambient warm green light -->
    <radialGradient id="centerLight" cx="50%" cy="50%" r="50%">
      <stop offset="0%" stop-color="#003d20" stop-opacity="0.7"/>
      <stop offset="100%" stop-color="#000000" stop-opacity="0"/>
    </radialGradient>

    <!-- Sweep wedge gradient -->
    <linearGradient id="sweepGrad" x1="1" y1="0" x2="0" y2="0" gradientUnits="userSpaceOnUse">
      <stop offset="0%" stop-color="#00ff66" stop-opacity="0"/>
      <stop offset="100%" stop-color="#00ff66" stop-opacity="0.18"/>
    </linearGradient>

    <!-- React orbit gradient: brighter, more cyan-electric -->
    <linearGradient id="orbitGrad" x1="0%" y1="0%" x2="100%" y2="100%">
      <stop offset="0%" stop-color="#e0f8ff"/>
      <stop offset="35%" stop-color="#61dafb"/>
      <stop offset="100%" stop-color="#0e8ec9"/>
    </linearGradient>

    <!-- Nucleus sphere gradient -->
    <radialGradient id="nucleusGrad" cx="35%" cy="28%" r="75%">
      <stop offset="0%" stop-color="#ffffff"/>
      <stop offset="25%" stop-color="#c8f0ff"/>
      <stop offset="60%" stop-color="#2db8f0"/>
      <stop offset="100%" stop-color="#0466a8"/>
    </radialGradient>

    <!-- Nucleus inner shine -->
    <radialGradient id="nucleusShine" cx="30%" cy="25%" r="60%">
      <stop offset="0%" stop-color="#ffffff" stop-opacity="0.95"/>
      <stop offset="100%" stop-color="#44aaff" stop-opacity="0"/>
    </radialGradient>

    <!-- Top glass shine -->
    <linearGradient id="glassShine" x1="0%" y1="0%" x2="0%" y2="100%">
      <stop offset="0%" stop-color="#ffffff" stop-opacity="0.11"/>
      <stop offset="100%" stop-color="#ffffff" stop-opacity="0"/>
    </linearGradient>

    <!-- Outer ring border gradient -->
    <linearGradient id="borderGrad" x1="0%" y1="0%" x2="100%" y2="100%">
      <stop offset="0%" stop-color="#2a8acc" stop-opacity="0.7"/>
      <stop offset="50%" stop-color="#0d4466" stop-opacity="0.4"/>
      <stop offset="100%" stop-color="#1a5c99" stop-opacity="0.6"/>
    </linearGradient>

    <!-- Vignette -->
    <radialGradient id="vignette" cx="50%" cy="50%" r="55%">
      <stop offset="45%" stop-color="#000000" stop-opacity="0"/>
      <stop offset="100%" stop-color="#000000" stop-opacity="0.85"/>
    </radialGradient>

    <!-- Debug bracket accent: warm amber -->
    <linearGradient id="bugGrad" x1="0%" y1="0%" x2="100%" y2="100%">
      <stop offset="0%" stop-color="#ffcc44"/>
      <stop offset="100%" stop-color="#ff8822"/>
    </linearGradient>

    <!-- Blip glow filter -->
    <filter id="fBlip" x="-150%" y="-150%" width="400%" height="400%">
      <feGaussianBlur stdDeviation="12" result="b"/>
      <feMerge><feMergeNode in="b"/><feMergeNode in="SourceGraphic"/></feMerge>
    </filter>

    <!-- Orbit glow -->
    <filter id="fOrbitGlow" x="-25%" y="-25%" width="150%" height="150%">
      <feGaussianBlur stdDeviation="6" result="b"/>
      <feMerge><feMergeNode in="b"/><feMergeNode in="SourceGraphic"/></feMerge>
    </filter>

    <!-- Atom crisp glow -->
    <filter id="fAtom" x="-45%" y="-45%" width="190%" height="190%">
      <feGaussianBlur stdDeviation="7" result="b"/>
      <feMerge><feMergeNode in="b"/><feMergeNode in="SourceGraphic"/></feMerge>
    </filter>

    <!-- Nucleus deep glow -->
    <filter id="fNucleus" x="-90%" y="-90%" width="280%" height="280%">
      <feGaussianBlur stdDeviation="16" result="b"/>
      <feMerge><feMergeNode in="b"/><feMergeNode in="SourceGraphic"/></feMerge>
    </filter>

    <!-- Sweep line glow -->
    <filter id="fSweep" x="-15%" y="-15%" width="130%" height="130%">
      <feGaussianBlur stdDeviation="10" result="b"/>
      <feMerge><feMergeNode in="b"/><feMergeNode in="SourceGraphic"/></feMerge>
    </filter>

    <!-- Debug badge glow -->
    <filter id="fBug" x="-50%" y="-50%" width="200%" height="200%">
      <feGaussianBlur stdDeviation="8" result="b"/>
      <feMerge><feMergeNode in="b"/><feMergeNode in="SourceGraphic"/></feMerge>
    </filter>

    <!-- Rounded icon clip -->
    <clipPath id="iconClip">
      <rect x="0" y="0" width="1024" height="1024" rx="224"/>
    </clipPath>
  </defs>

  <g clip-path="url(#iconClip)">

    <!-- ── BACKGROUND ── -->
    <rect width="1024" height="1024" fill="url(#bg)"/>

    <!-- Subtle star field -->
    <g fill="white">
      <circle cx="80"  cy="62"  r="1.4" opacity="0.45"/>
      <circle cx="210" cy="130" r="0.9" opacity="0.3"/>
      <circle cx="875" cy="85"  r="1.8" opacity="0.38"/>
      <circle cx="948" cy="258" r="1.1" opacity="0.28"/>
      <circle cx="48"  cy="378" r="1.3" opacity="0.28"/>
      <circle cx="988" cy="500" r="0.9" opacity="0.22"/>
      <circle cx="124" cy="825" r="1.4" opacity="0.25"/>
      <circle cx="912" cy="778" r="0.9" opacity="0.20"/>
      <circle cx="750" cy="956" r="1.4" opacity="0.18"/>
      <circle cx="345" cy="35"  r="0.9" opacity="0.38"/>
      <circle cx="595" cy="985" r="0.9" opacity="0.16"/>
      <circle cx="175" cy="505" r="0.9" opacity="0.16"/>
      <circle cx="828" cy="442" r="1.1" opacity="0.18"/>
      <circle cx="430" cy="920" r="1.0" opacity="0.14"/>
      <circle cx="65"  cy="640" r="1.0" opacity="0.20"/>
      <circle cx="960" cy="140" r="1.2" opacity="0.22"/>
    </g>

    <!-- ── RADAR DISC ── -->
    <circle cx="512" cy="512" r="475" fill="url(#radarFill)"/>
    <circle cx="512" cy="512" r="475" fill="url(#radarGlow)"/>
    <circle cx="512" cy="512" r="270" fill="url(#centerLight)"/>

    <!-- ── RADAR RINGS (concentric, getting brighter toward center) ── -->
    <g transform="translate(512,512)" fill="none">
      <circle r="455" stroke="#00ee55" stroke-width="1"   opacity="0.12"/>
      <circle r="364" stroke="#00ee55" stroke-width="1.2" opacity="0.18"/>
      <circle r="273" stroke="#00ee55" stroke-width="1.5" opacity="0.26"/>
      <circle r="182" stroke="#00ee55" stroke-width="1.8" opacity="0.36"/>
      <circle r="91"  stroke="#00ee55" stroke-width="2"   opacity="0.50"/>
      <circle r="38"  stroke="#00ff66" stroke-width="2.2" opacity="0.65"/>
    </g>

    <!-- ── RADAR GRID LINES ── -->
    <g stroke="#00cc44" stroke-width="1" opacity="0.15" fill="none">
      <line x1="512" y1="37"  x2="512" y2="987"/>
      <line x1="37"  y1="512" x2="987" y2="512"/>
      <line x1="188" y1="188" x2="836" y2="836"/>
      <line x1="836" y1="188" x2="188" y2="836"/>
    </g>

    <!-- ── SWEEP TRAIL WEDGE (pointing NE ~45°) ── -->
    <g transform="translate(512,512)">
      <!-- broad fading cone -->
      <path d="M0,0 L455,0 A455,455 0 0,0 392,-221 Z"
            fill="#00ff55" opacity="0.04"/>
      <!-- tighter leading edge glow -->
      <path d="M0,0 L428,-160 A455,455 0 0,0 455,0 Z"
            fill="#00ff55" opacity="0.03"/>
      <!-- extra thin wedge for depth -->
      <path d="M0,0 L455,0 A455,455 0 0,0 455,-60 Z"
            fill="#00ff88" opacity="0.025"/>
    </g>

    <!-- ── SWEEP LINE ── -->
    <g filter="url(#fSweep)">
      <!-- Outer soft glow layer -->
      <line x1="512" y1="512" x2="923" y2="141"
            stroke="#66ff22" stroke-width="10" stroke-linecap="round" opacity="0.38"/>
      <!-- Mid bright -->
      <line x1="512" y1="512" x2="923" y2="141"
            stroke="#ccff55" stroke-width="4" stroke-linecap="round" opacity="0.88"/>
      <!-- White hot core -->
      <line x1="512" y1="512" x2="923" y2="141"
            stroke="#ffffff" stroke-width="1.8" stroke-linecap="round" opacity="0.55"/>
    </g>

    <!-- ── RADAR BLIPS ── -->
    <g filter="url(#fBlip)">
      <!-- Main bright blip (largest, just past first ring) -->
      <circle cx="726" cy="305" r="11"  fill="#00ff66" opacity="1.0"/>
      <circle cx="726" cy="305" r="28"  fill="#00ff66" opacity="0.18"/>
      <!-- Secondary blip -->
      <circle cx="655" cy="438" r="7.5" fill="#44ff88" opacity="0.92"/>
      <circle cx="655" cy="438" r="18"  fill="#44ff88" opacity="0.14"/>
      <!-- Faint distant blips -->
      <circle cx="795" cy="396" r="5.5" fill="#00dd44" opacity="0.55"/>
      <circle cx="845" cy="265" r="4.5" fill="#88ffaa" opacity="0.42"/>
      <circle cx="562" cy="328" r="3.5" fill="#00cc44" opacity="0.35"/>
      <!-- Extra blip bottom-left quadrant (more scan coverage) -->
      <circle cx="368" cy="640" r="5"   fill="#22ff77" opacity="0.38"/>
      <circle cx="310" cy="560" r="3"   fill="#00ee55" opacity="0.28"/>
    </g>

    <!-- ── CENTER PIP ── -->
    <circle cx="512" cy="512" r="12" fill="#00ff55" opacity="0.95" filter="url(#fBlip)"/>
    <circle cx="512" cy="512" r="5"  fill="#ddfff0"/>

    <!-- ── VIGNETTE ── -->
    <rect width="1024" height="1024" fill="url(#vignette)"/>

    <!-- ── REACT ATOM (centered, large) ── -->
    <g transform="translate(512, 512)">

      <!-- Orbit glow halos -->
      <g filter="url(#fOrbitGlow)" opacity="0.5">
        <ellipse cx="0" cy="0" rx="275" ry="97" fill="none"
                 stroke="#61dafb" stroke-width="20"/>
        <ellipse cx="0" cy="0" rx="275" ry="97" fill="none"
                 stroke="#61dafb" stroke-width="20" transform="rotate(60)"/>
        <ellipse cx="0" cy="0" rx="275" ry="97" fill="none"
                 stroke="#61dafb" stroke-width="20" transform="rotate(120)"/>
      </g>

      <!-- Orbit rings — crisp -->
      <g filter="url(#fAtom)">
        <ellipse cx="0" cy="0" rx="275" ry="97" fill="none"
                 stroke="url(#orbitGrad)" stroke-width="14" opacity="0.95"/>
        <ellipse cx="0" cy="0" rx="275" ry="97" fill="none"
                 stroke="url(#orbitGrad)" stroke-width="14" opacity="0.95"
                 transform="rotate(60)"/>
        <ellipse cx="0" cy="0" rx="275" ry="97" fill="none"
                 stroke="url(#orbitGrad)" stroke-width="14" opacity="0.95"
                 transform="rotate(120)"/>
      </g>

      <!-- Nucleus corona layers -->
      <circle cx="0" cy="0" r="92"  fill="#1166cc" opacity="0.16" filter="url(#fNucleus)"/>
      <circle cx="0" cy="0" r="70"  fill="#2288ee" opacity="0.20"/>
      <circle cx="0" cy="0" r="54"  fill="#1a77dd" opacity="0.32"/>

      <!-- Nucleus main sphere -->
      <circle cx="0" cy="0" r="48"  fill="url(#nucleusGrad)"/>

      <!-- Nucleus highlight spot -->
      <circle cx="-11" cy="-14" r="20" fill="url(#nucleusShine)"/>
      <circle cx="-12" cy="-15" r="9"  fill="#ffffff" opacity="0.8"/>

    </g>

    <!-- ── DEBUG BADGE — bottom-right corner ── -->
    <!-- Subtle "{}" debug symbol as a badge, amber/orange to signal "debugger" -->
    <g transform="translate(780, 782)" filter="url(#fBug)">
      <!-- Badge circle -->
      <circle cx="0" cy="0" r="88" fill="#0d1e0e" opacity="0.92"/>
      <circle cx="0" cy="0" r="88" fill="none" stroke="url(#bugGrad)" stroke-width="5" opacity="0.9"/>
      <!-- Bug icon: stylized beetle/bug shape -->
      <!-- Body ellipse -->
      <ellipse cx="0" cy="6" rx="26" ry="34" fill="url(#bugGrad)" opacity="0.95"/>
      <!-- Head -->
      <circle cx="0" cy="-30" r="16" fill="url(#bugGrad)" opacity="0.95"/>
      <!-- Antennae -->
      <line x1="-8"  y1="-42" x2="-22" y2="-62" stroke="#ffcc44" stroke-width="3.5" stroke-linecap="round" opacity="0.9"/>
      <line x1="8"   y1="-42" x2="22"  y2="-62" stroke="#ffcc44" stroke-width="3.5" stroke-linecap="round" opacity="0.9"/>
      <circle cx="-22" cy="-62" r="4" fill="#ffee88" opacity="0.85"/>
      <circle cx="22"  cy="-62" r="4" fill="#ffee88" opacity="0.85"/>
      <!-- Legs left -->
      <line x1="-26" y1="-8"  x2="-52" y2="-18" stroke="#ff9933" stroke-width="3" stroke-linecap="round" opacity="0.85"/>
      <line x1="-26" y1="6"   x2="-54" y2="6"   stroke="#ff9933" stroke-width="3" stroke-linecap="round" opacity="0.85"/>
      <line x1="-26" y1="20"  x2="-50" y2="30"  stroke="#ff9933" stroke-width="3" stroke-linecap="round" opacity="0.85"/>
      <!-- Legs right -->
      <line x1="26"  y1="-8"  x2="52"  y2="-18" stroke="#ff9933" stroke-width="3" stroke-linecap="round" opacity="0.85"/>
      <line x1="26"  y1="6"   x2="54"  y2="6"   stroke="#ff9933" stroke-width="3" stroke-linecap="round" opacity="0.85"/>
      <line x1="26"  y1="20"  x2="50"  y2="30"  stroke="#ff9933" stroke-width="3" stroke-linecap="round" opacity="0.85"/>
      <!-- Wing split line -->
      <line x1="0" y1="-10" x2="0" y2="36" stroke="#ffcc44" stroke-width="2" stroke-linecap="round" opacity="0.5"/>
    </g>

    <!-- ── GLASS SHINE (top half) ── -->
    <rect width="1024" height="470" fill="url(#glassShine)"/>

    <!-- ── ICON BORDER ── -->
    <rect x="0" y="0" width="1024" height="1024" rx="224"
          fill="none" stroke="url(#borderGrad)" stroke-width="6" opacity="0.55"/>
    <rect x="7" y="7" width="1010" height="1010" rx="218"
          fill="none" stroke="#ffffff" stroke-width="2" opacity="0.06"/>

  </g>
</svg>
